<svg xmlns="http://www.w3.org/2000/svg"  viewBox="0 0 24 24" width="192px" height="192px"><path d="M17,17V8.084c0-0.874,0.515-1.717,1.348-1.981C19.729,5.665,21,6.684,21,8v9H17z"/><path d="M22.798,16.182l-3.085,3.114c-0.393,0.396-1.033,0.396-1.426,0l-3.085-3.114C14.768,15.744,15.079,15,15.695,15h6.609	C22.921,15,23.232,15.744,22.798,16.182z"/><path d="M13,7H3C1.895,7,1,6.105,1,5v0c0-1.105,0.895-2,2-2h10c1.105,0,2,0.895,2,2v0C15,6.105,14.105,7,13,7	z" opacity=".35"/><path d="M10,14H3c-1.105,0-2-0.895-2-2v0c0-1.105,0.895-2,2-2h7c1.105,0,2,0.895,2,2v0	C12,13.105,11.105,14,10,14z" opacity=".35"/><path d="M8,21H3c-1.105,0-2-0.895-2-2v0c0-1.105,0.895-2,2-2h5c1.105,0,2,0.895,2,2v0	C10,20.105,9.105,21,8,21z" opacity=".35"/></svg>