<svg fill="#000000" xmlns="http://www.w3.org/2000/svg"  viewBox="0 0 50 50" width="250px" height="250px"><path d="M 3.5625 1.59375 L 3.5625 4.1875 L 12.78125 4.1875 L 2.78125 16.28125 L 2.78125 18.71875 L 16.8125 18.71875 L 16.8125 16.125 L 6.59375 16.125 L 16.59375 3.875 L 16.59375 1.59375 Z M 39.78125 7.96875 C 38.75 8.082031 37.976563 8.964844 38 10 L 38 34.71875 L 33.53125 30.21875 C 33.101563 29.777344 32.488281 29.554688 31.875 29.625 C 31.097656 29.699219 30.433594 30.222656 30.179688 30.960938 C 29.921875 31.703125 30.121094 32.523438 30.6875 33.0625 L 38.59375 40.9375 L 40 42.34375 L 41.40625 40.9375 L 49.3125 33.0625 C 50.097656 32.277344 50.097656 31.003906 49.3125 30.21875 C 48.527344 29.433594 47.253906 29.433594 46.46875 30.21875 L 42 34.71875 L 42 10 C 42.007813 9.457031 41.796875 8.9375 41.414063 8.554688 C 41.03125 8.171875 40.511719 7.960938 39.96875 7.96875 C 39.90625 7.964844 39.84375 7.964844 39.78125 7.96875 Z M 8.1875 30.40625 L 1.625 47.53125 L 4.71875 47.53125 L 6.3125 43 L 13.15625 43 L 14.78125 47.53125 L 18 47.53125 L 11.375 30.40625 Z M 9.71875 33.34375 L 9.8125 33.34375 L 12.375 40.71875 L 7.125 40.71875 Z"/></svg>